<?xml version="1.0" encoding="UTF-8" standalone="no"?>
<!-- Created with Inkscape (http://www.inkscape.org/) -->

<svg
   width="300"
   height="300"
   viewBox="0 0 79.374998 79.374998"
   version="1.1"
   id="svg5"
   xml:space="preserve"
   inkscape:version="1.2 (dc2aedaf03, 2022-05-15)"
   sodipodi:docname="gnome-cz-icon.svg"
   inkscape:export-filename="gnome-cz.png"
   inkscape:export-xdpi="96"
   inkscape:export-ydpi="96"
   xmlns:inkscape="http://www.inkscape.org/namespaces/inkscape"
   xmlns:sodipodi="http://sodipodi.sourceforge.net/DTD/sodipodi-0.dtd"
   xmlns="http://www.w3.org/2000/svg"
   xmlns:svg="http://www.w3.org/2000/svg"><sodipodi:namedview
     id="namedview7"
     pagecolor="#ffffff"
     bordercolor="#000000"
     borderopacity="0.25"
     inkscape:showpageshadow="2"
     inkscape:pageopacity="0.0"
     inkscape:pagecheckerboard="0"
     inkscape:deskcolor="#d1d1d1"
     inkscape:document-units="px"
     showgrid="false"
     inkscape:zoom="1.6819304"
     inkscape:cx="108.50627"
     inkscape:cy="143.28774"
     inkscape:window-width="1680"
     inkscape:window-height="981"
     inkscape:window-x="0"
     inkscape:window-y="0"
     inkscape:window-maximized="1"
     inkscape:current-layer="g14817" /><defs
     id="defs2"><clipPath
       clipPathUnits="userSpaceOnUse"
       id="clipPath2761"><path
         id="path2763"
         style="fill:#000000;fill-opacity:1;fill-rule:nonzero;stroke:none;stroke-width:5.07356;stroke-miterlimit:4"
         d="m 504.21637,476.47386 c 5.6164,42.89198 -31.4663,64.07411 -67.7829,36.42316 -115.6113,-88.02131 191.4207,-131.93303 171.1822,-252.18672 -16.7986,-99.81738 -323.0644,-69.08674 -357.9402,87.09793 -23.6073,105.63674 97.174,252.19178 223.2015,252.19178 61.9989,0 133.5109,-55.98175 146.8899,-126.90006 10.2182,-54.07911 -120.2385,-32.40994 -115.5505,3.37391 z M 338.92467,185.90563 c 31.654,-6.4536 33.3891,-136.2963 -23.0594,-113.00355 -56.4586,23.29782 -8.5692,119.46724 23.0594,113.00355 z m -74.9214,59.92388 c 26.5906,-11.70467 3.4246,-126.18974 -41.791,-94.96701 -45.1953,31.22783 15.2004,106.66669 41.791,94.96701 z m 171.3445,-90.07608 c 37.3871,2.28309 78.4069,-142.678861 8.138,-133.561651 -70.2435,9.11719 -45.5403,131.278541 -8.138,133.561651 z M 642.60797,-1.1023622e-5 c -124.8198,0 -148.2343,177.782831023622 -78.0161,177.782831023622 70.2079,0 202.8411,-177.782831023622 78.0161,-177.782831023622 z" /></clipPath></defs><g
     inkscape:label="Vrstva 1"
     inkscape:groupmode="layer"
     id="layer1"
     transform="translate(0.8333258,-42.666664)"><g
       id="g14817"
       transform="matrix(0.37500001,0,0,0.37500001,-0.52082862,26.666665)"><path
         id="rect3543"
         style="fill:none;stroke-width:0.266683;stroke:none"
         d="M -0.8333258,42.666664 H 210.83333 V 254.33332 H -0.8333258 Z" /><g
         id="g1428"
         transform="matrix(0.35277776,0,0,0.35277776,-53.749973,42.666663)"
         clip-path="url(#clipPath2761)"><rect
           width="900"
           height="600"
           fill="#d7141a"
           id="rect1413"
           x="0"
           y="0" /><rect
           width="900"
           height="300"
           fill="#ffffff"
           id="rect1415"
           x="0"
           y="0" /><path
           d="M 450,300 0,0 v 600 z"
           fill="#11457e"
           id="path1417" /></g></g></g></svg>
