<?xml version="1.0" encoding="UTF-8" standalone="no"?>
<!-- Created with Inkscape (http://www.inkscape.org/) -->

<svg
   width="1369.6583"
   height="777.20587"
   viewBox="0 0 362.38876 205.63572"
   version="1.1"
   id="svg14178"
   xml:space="preserve"
   xmlns="http://www.w3.org/2000/svg"
   xmlns:svg="http://www.w3.org/2000/svg"><defs
     id="defs14175"><clipPath
       clipPathUnits="userSpaceOnUse"
       id="clipPath2761"><path
         id="path2763"
         style="fill:#000000;fill-opacity:1;fill-rule:nonzero;stroke:none;stroke-width:5.07356;stroke-miterlimit:4"
         d="m 504.21637,476.47386 c 5.6164,42.89198 -31.4663,64.07411 -67.7829,36.42316 -115.6113,-88.02131 191.4207,-131.93303 171.1822,-252.18672 -16.7986,-99.81738 -323.0644,-69.08674 -357.9402,87.09793 -23.6073,105.63674 97.174,252.19178 223.2015,252.19178 61.9989,0 133.5109,-55.98175 146.8899,-126.90006 10.2182,-54.07911 -120.2385,-32.40994 -115.5505,3.37391 z M 338.92467,185.90563 c 31.654,-6.4536 33.3891,-136.2963 -23.0594,-113.00355 -56.4586,23.29782 -8.5692,119.46724 23.0594,113.00355 z m -74.9214,59.92388 c 26.5906,-11.70467 3.4246,-126.18974 -41.791,-94.96701 -45.1953,31.22783 15.2004,106.66669 41.791,94.96701 z m 171.3445,-90.07608 c 37.3871,2.28309 78.4069,-142.678861 8.138,-133.561651 -70.2435,9.11719 -45.5403,131.278541 -8.138,133.561651 z M 642.60797,-1.1023622e-5 c -124.8198,0 -148.2343,177.782831023622 -78.0161,177.782831023622 70.2079,0 202.8411,-177.782831023622 78.0161,-177.782831023622 z" /></clipPath></defs><g
     id="layer1"
     transform="translate(46.533767,39.849798)"><g
       id="g15743"><g
         id="gCZE"
         transform="matrix(17.054597,0,0,17.054597,-4843.0539,-4757.278)"
         style="display:inline;fill:none;fill-opacity:1;stroke:#ffffff"><path
           id="polyF1S57P1-9"
           d="m 289.54,277.51 0.26,-0.03 0.25,-0.13 0.01,-0.2 -0.03,-0.36 0.02,-0.06 0.4,0.08 0.41,0.14 0.08,0.36 0.12,0.17 0.14,0.15 0.13,0.07 h 0.21 l 0.56,0.17 0.26,0.03 0.28,0.13 0.24,0.13 0.16,0.02 0.09,0.17 0.11,0.1 0.18,-0.1 0.64,-0.17 0.25,0.14 0.17,0.16 0.03,0.06 -0.07,0.16 -0.03,0.12 -0.07,0.08 -0.21,0.1 -0.12,0.15 -0.08,0.15 0.07,0.14 0.19,0.09 0.14,0.02 0.05,0.1 0.46,0.43 0.38,0.57 0.14,0.09 0.12,0.01 0.14,-0.1 0.14,-0.21 0.18,-0.16 0.16,-0.09 0.28,-0.19 v -0.11 l -0.28,-0.39 -0.17,-0.32 0.03,-0.06 0.31,0.03 0.54,0.13 0.85,0.52 0.15,-0.02 0.28,-0.07 0.29,-0.13 0.13,-0.12 0.06,0.04 0.08,0.32 -0.06,0.18 -0.35,0.21 0.03,0.08 0.1,0.1 0.18,0.06 0.22,0.19 0.16,0.23 0.13,0.1 0.14,0.04 0.32,-0.16 0.08,-0.11 0.04,-0.08 0.06,0.01 0.13,0.1 0.04,0.07 0.34,0.1 0.21,0.14 0.12,0.07 0.13,-0.09 0.53,0.07 0.15,0.1 0.06,0.18 -0.01,0.11 0.11,0.28 0.73,0.61 0.11,0.34 0.02,0.14 -0.08,0.02 -0.17,0.09 -0.22,0.05 -0.25,0.02 -0.17,0.15 -0.16,0.22 -0.17,0.17 -0.09,0.14 -0.04,0.14 -0.6,0.44 -0.07,0.17 -0.05,0.22 v 0.29 l -0.02,0.26 -0.09,0.15 -0.34,0.15 -0.08,0.07 -0.05,0.14 -0.17,0.22 -0.21,0.22 -0.39,0.26 -0.45,0.11 -0.59,-0.01 -0.34,-0.06 -0.16,0.11 -0.2,0.31 -0.21,0.52 -0.07,0.38 -0.08,-0.1 -0.18,-0.38 -0.16,-0.04 -0.22,-0.02 -0.17,-0.04 -0.37,-0.2 -0.18,-0.06 h -0.21 l -0.19,0.15 -0.14,0.17 -0.46,0.04 -0.52,-0.04 -0.77,-0.47 -0.18,0.01 -0.21,0.04 -0.32,-0.1 -0.64,-0.3 -0.3,-0.06 -0.18,0.06 -0.16,0.09 -0.12,0.01 -0.07,-0.1 -0.24,-0.12 -0.23,-0.01 -0.06,0.09 -0.04,0.75 -0.06,0.28 h -0.32 l -0.1,0.14 -0.23,0.37 -0.03,0.36 -0.44,-0.05 -0.21,-0.05 -0.18,0.06 -0.19,0.2 -0.57,0.02 -0.45,-0.09 -0.21,-0.43 -0.21,-0.16 -0.26,-0.14 -0.09,-0.03 -0.16,-0.23 -0.28,-0.27 -0.45,-0.38 -0.33,0.03 -0.13,-0.1 -0.06,-0.14 -0.15,-0.25 -0.16,-0.17 -0.2,-0.06 -0.28,-0.22 -0.38,-0.47 -0.35,-0.33 -0.32,0.02 -0.21,-0.17 -0.22,-0.23 -0.16,-0.22 -0.25,-0.54 -0.18,-0.3 -0.14,-0.19 -0.15,-0.16 -0.06,-0.12 0.18,-0.3 0.06,-0.14 0.08,-0.11 0.04,-0.12 -0.01,-0.09 -0.17,-0.28 -0.23,-0.2 -0.34,-0.21 -0.22,-0.25 -0.08,-0.25 -0.03,-0.13 -0.15,-0.18 -0.12,-0.26 v -0.16 l 0.03,-0.04 h 0.11 l 0.12,0.1 0.18,0.21 0.15,0.3 0.08,-0.12 0.16,-0.33 0.27,-0.37 0.29,-0.22 0.27,-0.03 0.21,-0.06 0.18,-0.11 0.32,0.03 0.22,0.07 0.08,-0.05 0.08,-0.19 0.06,-0.17 0.5,-0.11 0.16,-0.33 h 0.09 l 0.11,-0.05 0.1,-0.13 0.1,-0.05 0.09,0.06 0.11,0.03 0.1,-0.08 0.15,-0.37 0.09,-0.06 0.44,-0.08 0.59,-0.24 0.29,-0.2 0.29,-0.12 0.31,-0.2 0.5,-0.21 0.02,-0.07 -0.25,-0.17 -0.08,-0.12 -0.06,-0.11 0.08,-0.14 0.1,-0.05 0.15,0.05 0.43,0.06 0.12,0.07 0.05,0.18 0.12,0.17 0.08,0.01 -0.01,0.29 0.14,0.1 0.2,0.08 0.13,-0.03 0.09,-0.12 z"
           class="region CZE"
           style="fill:none;fill-opacity:1;stroke:#ffffff;stroke-width:0.25;stroke-linejoin:bevel" /></g><g
         id="g14817"
         transform="matrix(0.37500002,0,0,0.37500002,95.28568,7.2806501)"><path
           id="rect3543"
           style="fill:none;stroke:none;stroke-width:0.266683"
           d="M -0.8333258,42.666664 H 210.83333 V 254.33332 H -0.8333258 Z" /><g
           id="g1428"
           transform="matrix(0.35277776,0,0,0.35277776,-53.749973,42.666663)"
           clip-path="url(#clipPath2761)"><rect
             width="900"
             height="600"
             fill="#d7141a"
             id="rect1413"
             x="0"
             y="0" /><rect
             width="900"
             height="300"
             fill="#ffffff"
             id="rect1415"
             x="0"
             y="0" /><path
             d="M 450,300 0,0 v 600 z"
             fill="#11457e"
             id="path1417" /></g></g></g></g></svg>
