<?xml version="1.0" encoding="UTF-8" standalone="no"?>
<!-- Created with Inkscape (http://www.inkscape.org/) -->

<svg
   width="1535.9999"
   height="807"
   viewBox="0 0 406.39997 213.51875"
   version="1.1"
   id="svg5"
   xml:space="preserve"
   inkscape:version="1.2 (dc2aedaf03, 2022-05-15)"
   sodipodi:docname="laptop.svg"
   xmlns:inkscape="http://www.inkscape.org/namespaces/inkscape"
   xmlns:sodipodi="http://sodipodi.sourceforge.net/DTD/sodipodi-0.dtd"
   xmlns="http://www.w3.org/2000/svg"
   xmlns:svg="http://www.w3.org/2000/svg"><sodipodi:namedview
     id="namedview7"
     pagecolor="#ffffff"
     bordercolor="#000000"
     borderopacity="0.25"
     inkscape:showpageshadow="2"
     inkscape:pageopacity="0.0"
     inkscape:pagecheckerboard="0"
     inkscape:deskcolor="#d1d1d1"
     inkscape:document-units="px"
     showgrid="false"
     inkscape:zoom="0.1767767"
     inkscape:cx="1323.7039"
     inkscape:cy="169.70563"
     inkscape:window-width="1680"
     inkscape:window-height="981"
     inkscape:window-x="0"
     inkscape:window-y="0"
     inkscape:window-maximized="1"
     inkscape:current-layer="layer1"
     showguides="false"><sodipodi:guide
       position="-94.700222,114.44269"
       orientation="1,0"
       id="guide306"
       inkscape:locked="false" /></sodipodi:namedview><defs
     id="defs2" /><g
     inkscape:label="Vrstva 1"
     inkscape:groupmode="layer"
     id="layer1"
     transform="translate(-240.97271,-3.175)"><g
       id="g2520"><rect
         style="fill:#77767b;fill-opacity:1;stroke-width:6.53124"
         id="rect2512"
         width="352.44705"
         height="198.25146"
         x="267.94916"
         y="5.9138551"
         rx="0"
         ry="0" /><g
         id="g2458"><path
           id="path567"
           style="fill:#000000;fill-opacity:1;stroke-width:3.75267"
           d="m 270.45721,3.175 c -2.19868,0 -3.96875,1.7700713 -3.96875,3.96875 V 206.90417 H 621.85694 V 7.14375 c 0,-2.1986826 -1.77006,-3.96875 -3.96875,-3.96875 z m 0.41341,4.3821615 H 617.47478 V 202.52201 H 270.87062 Z" /><g
           id="g2452"><path
             id="rect308"
             style="fill:#9a9996;fill-opacity:1;stroke-width:0.323954"
             d="m 244.11722,206.90417 c -1.74195,0 -3.14451,1.40255 -3.14451,3.14451 0,1.38812 0.89048,2.56061 2.13372,2.97966 l 10.03711,3.66541 h 382.05834 l 10.03711,-3.66541 c 0.006,-0.002 0.0127,-0.005 0.0191,-0.007 1.23323,-0.42458 2.1146,-1.59195 2.1146,-2.97294 0,-1.74196 -1.40256,-3.14451 -3.14451,-3.14451 h -9.02632 -382.05834 z" /><path
             id="rect486"
             style="fill:#77767b;fill-opacity:1;stroke-width:0.766854"
             d="m 390.3057,209.15299 c 0,2.93156 2.36009,5.29166 5.29167,5.29166 h 97.15066 c 2.93159,0 5.29167,-2.3601 5.29167,-5.29166 h -5.29167 -5.29167 -86.56732 z" /></g></g></g></g></svg>
